<?xml version="1.0" encoding="utf-8"?>
<svg xmlns="http://www.w3.org/2000/svg" viewBox="0 0 50 50" style="enable-background:new 0 0 50 50" xml:space="preserve">
  <linearGradient id="a" gradientUnits="userSpaceOnUse" x1="0" y1="24.929" x2="50" y2="24.929">
    <stop offset="0" style="stop-color:red"/>
    <stop offset="1" style="stop-color:#9b0f00"/>
  </linearGradient>
  <path d="M22.57 45.61 0 4.25h7.43L25.7 38.72 43.15 4.25H50L28.36 45.61h-5.79z" style="fill:url(#a)"/>
  <path d="M46.54 39.72a3.8 3.8 0 0 1-.99.31c-.3.06-.61.09-.92.1-.8.02-1.6-.09-2.36-.33-.6-.19-1.15-.51-1.6-.93-.42-.41-.74-.9-.92-1.46-.2-.6-.3-1.23-.3-1.87 0-.59.1-1.18.29-1.74.19-.6.5-1.15.9-1.62.43-.51.96-.92 1.56-1.21.71-.34 1.5-.5 2.28-.48 1.83 0 3.2.56 4.13 1.69.93 1.13 1.39 2.74 1.39 4.85.02 1.25-.16 2.49-.54 3.67a6.492 6.492 0 0 1-1.68 2.68c-.83.76-1.82 1.32-2.9 1.65-1.36.4-2.77.6-4.18.59-.01-.45-.04-.89-.06-1.32-.03-.43-.06-.86-.09-1.32.73-.01 1.46-.07 2.19-.18.6-.09 1.18-.27 1.72-.53a3.9 3.9 0 0 0 1.26-.99c.37-.47.65-.99.82-1.56zm-1.56-2.06c.34 0 .68-.03 1.02-.1.28-.04.54-.13.79-.27v-.19c0-.06 0-.11.01-.17.01-.05.01-.1.01-.15-.01-.48-.05-.96-.13-1.43-.06-.41-.18-.8-.36-1.17-.16-.32-.4-.59-.69-.79-.32-.2-.69-.3-1.07-.29-.31-.01-.62.07-.89.21-.25.13-.46.32-.62.55-.16.23-.27.48-.35.74-.08.26-.12.52-.12.79-.05.62.15 1.23.56 1.7.38.38 1 .57 1.84.57z" style="fill:#009cde"/>
</svg>